<?xml version="1.0" encoding="UTF-8"?>
<!DOCTYPE svg PUBLIC "-//W3C//DTD SVG 1.1//EN" "http://www.w3.org/Graphics/SVG/1.1/DTD/svg11.dtd">
<svg xmlns="http://www.w3.org/2000/svg" version="1.1" width="512px" height="512px" style="shape-rendering:geometricPrecision; text-rendering:geometricPrecision; image-rendering:optimizeQuality; fill-rule:evenodd; clip-rule:evenodd" xmlns:xlink="http://www.w3.org/1999/xlink">
<g><path style="opacity:0.973" fill="#b3404a" d="M 236.5,7.5 C 308.712,2.35247 363.545,30.3525 401,91.5C 427.618,142.456 430.618,194.789 410,248.5C 405.922,256.991 401.588,265.324 397,273.5C 365.833,318.667 334.667,363.833 303.5,409C 317.499,411.601 331.499,414.601 345.5,418C 358.063,421.449 369.73,426.783 380.5,434C 392.96,444.932 394.793,457.432 386,471.5C 379.251,478.238 371.418,483.405 362.5,487C 336.995,496.307 310.661,501.641 283.5,503C 249.241,505.115 215.241,503.115 181.5,497C 165.71,493.848 150.71,488.515 136.5,481C 121.147,472.474 116.313,459.974 122,443.5C 125.878,437.955 130.711,433.455 136.5,430C 145.762,425.024 155.429,421.024 165.5,418C 179.502,414.601 193.502,411.601 207.5,409C 176.333,363.833 145.167,318.667 114,273.5C 83.1276,220.149 79.1276,164.815 102,107.5C 129.074,50.2565 173.908,16.9231 236.5,7.5 Z M 254.5,23.5 C 322.334,26.5247 369.501,59.1914 396,121.5C 412.563,167.834 409.563,212.834 387,256.5C 343.648,320.552 299.814,384.218 255.5,447.5C 211.186,384.218 167.352,320.552 124,256.5C 97.4266,203.505 98.0933,150.839 126,98.5C 155.585,50.9528 198.418,25.9528 254.5,23.5 Z M 254.5,71.5 C 308.692,75.202 342.859,103.202 357,155.5C 363.645,208.721 343.145,247.221 295.5,271C 253.101,286.441 215.268,278.941 182,248.5C 148.623,210.547 143.29,168.88 166,123.5C 186.445,90.914 215.945,73.5807 254.5,71.5 Z"/></g>
<g><path style="opacity:0.969" fill="#b33f49" d="M 240.5,55.5 C 301.996,51.9772 344.829,78.3105 369,134.5C 384.611,185.893 373.111,230.06 334.5,267C 293.981,298.549 249.981,304.215 202.5,284C 153.621,257.04 131.455,215.54 136,159.5C 144.108,112.398 170.275,79.898 214.5,62C 223.14,59.1732 231.807,57.0065 240.5,55.5 Z M 254.5,71.5 C 215.945,73.5807 186.445,90.914 166,123.5C 143.29,168.88 148.623,210.547 182,248.5C 215.268,278.941 253.101,286.441 295.5,271C 343.145,247.221 363.645,208.721 357,155.5C 342.859,103.202 308.692,75.202 254.5,71.5 Z"/></g>
<g><path style="opacity:0.995" fill="#b3404a" d="M 235.5,87.5 C 248.837,87.3334 262.171,87.5001 275.5,88C 277.333,88.5 278.5,89.6667 279,91.5C 279.333,109.833 279.667,128.167 280,146.5C 287.73,151.909 292.73,159.242 295,168.5C 295.667,194.5 295.667,220.5 295,246.5C 292.167,254.667 286.667,260.167 278.5,263C 263.167,263.667 247.833,263.667 232.5,263C 224.333,260.167 218.833,254.667 216,246.5C 215.333,220.5 215.333,194.5 216,168.5C 218.27,159.242 223.27,151.909 231,146.5C 231.333,128.167 231.667,109.833 232,91.5C 232.69,89.6498 233.856,88.3164 235.5,87.5 Z"/></g>
<g><path style="opacity:1" fill="#f3b2af" d="M 247.5,103.5 C 252.833,103.5 258.167,103.5 263.5,103.5C 263.5,108.833 263.5,114.167 263.5,119.5C 258.167,119.5 252.833,119.5 247.5,119.5C 247.5,114.167 247.5,108.833 247.5,103.5 Z"/></g>
<g><path style="opacity:1" fill="#f3b1af" d="M 247.5,135.5 C 252.833,135.5 258.167,135.5 263.5,135.5C 263.334,141.842 263.5,148.175 264,154.5C 268.779,157.946 272.946,162.112 276.5,167C 262.5,167.667 248.5,167.667 234.5,167C 237.383,162.45 241.216,158.95 246,156.5C 247.384,149.589 247.884,142.589 247.5,135.5 Z"/></g>
<g><path style="opacity:1" fill="#f3b2af" d="M 231.5,183.5 C 247.5,183.5 263.5,183.5 279.5,183.5C 279.5,194.167 279.5,204.833 279.5,215.5C 263.5,215.5 247.5,215.5 231.5,215.5C 231.5,204.833 231.5,194.167 231.5,183.5 Z"/></g>
<g><path style="opacity:1" fill="#f3b1af" d="M 231.5,231.5 C 247.5,231.5 263.5,231.5 279.5,231.5C 279.665,234.85 279.498,238.183 279,241.5C 278.727,243.329 277.893,244.829 276.5,246C 269.409,247.112 262.242,247.612 255,247.5C 248.065,247.63 241.232,247.13 234.5,246C 233.107,244.829 232.273,243.329 232,241.5C 231.502,238.183 231.335,234.85 231.5,231.5 Z"/></g>
<g><path style="opacity:1" fill="#f3b1af" d="M 212.5,425.5 C 216.287,424.814 219.454,425.814 222,428.5C 231,441.833 240,455.167 249,468.5C 253.298,472.379 257.631,472.379 262,468.5C 271.443,454.058 281.277,439.891 291.5,426C 318.714,426.738 344.38,433.405 368.5,446C 371.832,448.489 374.166,451.656 375.5,455.5C 374.809,458.353 373.476,460.853 371.5,463C 358.311,471.4 343.978,477.066 328.5,480C 277.751,490.291 227.084,489.958 176.5,479C 163.203,475.794 150.87,470.46 139.5,463C 136.754,460.354 135.587,457.188 136,453.5C 137.793,450.705 139.96,448.205 142.5,446C 155.839,438.108 170.173,432.774 185.5,430C 194.59,428.157 203.59,426.657 212.5,425.5 Z"/></g>
</svg>
